<?xml version="1.0" encoding="UTF-8"?><svg id="Layer_1" xmlns="http://www.w3.org/2000/svg" width="471.51" height="263.35" viewBox="0 0 471.51 263.35"><defs><style>.cls-1{fill:#fff;}</style></defs><path class="cls-1" d="M0,70.81L.51,31.24S108.51,4.66,138.51,2.09s64-3,88,0,55,9.43,64,10.72,63,12.86,100,12.43c37-.43,81-4.29,81-4.29v200.6s-56,20.57-70,24c-14,3.43-27,6.43-43,7.72s-39,1.71-53,0-41-5.57-51-7.72c-10-2.14-48-7.29-66-8.57s-43-3.43-58-1.71-36,3.86-52,7.29-55,12.86-68,17.57l-8.88,3.22"/></svg>