<?xml version="1.0" encoding="UTF-8"?><svg id="Layer_1" xmlns="http://www.w3.org/2000/svg" width="150.44" height="150.3" viewBox="0 0 150.44 150.3"><defs><style>.cls-1{fill:#49843a;}.cls-1,.cls-2,.cls-3,.cls-4,.cls-5,.cls-6,.cls-7{stroke:#000;stroke-miterlimit:10;stroke-width:.3px;}.cls-2{fill:#939292;}.cls-8,.cls-6{fill:#fff;}.cls-9,.cls-5{fill:#ea3939;}.cls-3{fill:#50bacc;}.cls-4{fill:#bce8ed;}.cls-10{fill:#b7b7b7;}.cls-7{fill:#f7f772;opacity:.5;}.cls-11{fill:#7c2424;}</style></defs><rect class="cls-4" x=".29" y=".15" width="150" height="150"/><rect class="cls-3" x="69.66" y="123.82" width="80.62" height="26.33"/><path class="cls-1" d="M87.14,150.15H.15c.05-9.7.09-19.41.14-29.11,5.86-2.93,18.64-8.35,35.61-7.71,17.11.64,29.53,7.1,35.15,10.49,5.37,8.78,10.73,17.56,16.1,26.33Z"/><path class="cls-9" d="M25.12,123.67l6.14-80.34c.93-3.45,3.75-5.88,6.85-5.88.15,0,.3,0,.44.02,2.93.22,5.49,2.58,6.36,5.89l6.21,80.32h-26.01Z"/><path d="M38.12,37.3v.3c.14,0,.29,0,.43.02,2.86.21,5.36,2.52,6.22,5.75l6.2,80.16h-25.68l6.13-80.15c.92-3.4,3.68-5.77,6.71-5.77v-.3M38.12,37.3c-3.14,0-6.04,2.42-7,6.01-2.05,26.84-4.1,53.67-6.16,80.51h26.33c-2.07-26.84-4.15-53.67-6.22-80.51-.89-3.38-3.5-5.78-6.49-6-.15-.01-.3-.02-.46-.02h0Z"/><path class="cls-8" d="M35.44,124.47c-.1,0-.17,0-.23-.03-1.05-.36-1.65-4.1-.86-7.96.6-2.96,2.23-7.37,4.23-7.37,2.53,0,4.07,6.62,4.23,7.38.78,3.54.52,7.2-.55,7.67-.09.04-.18.06-.28.06h0c-.23,0-.5-.09-.81-.19-.45-.14-1-.32-1.69-.32-.3,0-.61.03-.92.1-.11.02-.17.04-.26.07-.1.03-.23.07-.5.13-1.21.29-1.93.47-2.34.47Z"/><path d="M38.57,109.25c1.96,0,3.49,4.56,4.08,7.26.76,3.42.53,7.06-.46,7.5-.07.03-.14.04-.22.04-.21,0-.47-.08-.77-.18-.46-.15-1.03-.33-1.74-.33-.31,0-.63.04-.96.11-.11.02-.18.04-.27.07-.1.03-.23.07-.5.13-1.15.28-1.91.47-2.3.47-.1,0-.15-.01-.18-.02-.97-.33-1.52-4.06-.76-7.79.59-2.92,2.17-7.25,4.08-7.25h0M38.57,108.95c-2.33,0-3.9,5.17-4.37,7.49-.75,3.67-.27,7.71.96,8.13.07.03.17.04.28.04.43,0,1.16-.18,2.38-.48.5-.12.53-.15.76-.2.32-.07.62-.1.89-.1,1.15,0,1.9.51,2.51.51.12,0,.23-.02.34-.07,1.26-.56,1.36-4.54.64-7.84-.15-.69-1.71-7.49-4.38-7.49h0Z"/><path class="cls-11" d="M35.98,123.67c-.08,0-.14,0-.18-.02-.86-.31-1.35-3.58-.7-6.96.5-2.59,1.84-6.45,3.47-6.45,1.69,0,2.98,4.06,3.48,6.45.65,3.1.44,6.3-.44,6.71-.07.03-.14.05-.22.05-.19,0-.41-.08-.66-.16-.37-.13-.84-.29-1.41-.29-.25,0-.51.03-.77.09-.09.02-.14.04-.22.06-.08.02-.19.06-.42.12-.99.26-1.59.41-1.93.41Z"/><path d="M38.58,110.38c1.59,0,2.88,4.14,3.33,6.33.61,2.93.43,6.17-.36,6.54-.05.02-.1.03-.16.03-.16,0-.37-.07-.61-.16-.38-.13-.86-.29-1.46-.29-.26,0-.54.03-.81.1-.09.02-.15.04-.23.06-.08.02-.19.06-.41.11-.95.25-1.57.41-1.89.41-.08,0-.11,0-.13-.02-.71-.25-1.26-3.4-.6-6.79.47-2.45,1.79-6.33,3.33-6.33h0M38.58,110.08c-1.93,0-3.23,4.54-3.62,6.57-.62,3.22-.23,6.76.8,7.13.06.02.14.03.23.03.36,0,.96-.16,1.97-.42.42-.11.44-.13.63-.18.27-.06.51-.09.74-.09.95,0,1.58.45,2.08.45.1,0,.19-.02.28-.06,1.04-.49,1.13-3.98.53-6.87-.13-.61-1.42-6.57-3.63-6.57,0,0,0,0,0,0h0Z"/><rect class="cls-8" x="21.84" y="122.31" width="32.57" height="3.02"/><path d="M54.26,122.46v2.72H21.99v-2.72h32.27M54.56,122.16H21.69v3.32h32.87v-3.32h0Z"/><polygon class="cls-8" points="27.82 88.36 28.86 74.7 47.34 74.7 48.4 88.36 27.82 88.36"/><path d="M47.2,74.85l.33,4.26.7,9.1h-20.26l.68-8.86.34-4.5h18.2M47.48,74.55h-18.76c-.36,4.65-.71,9.31-1.07,13.96h20.9c-.36-4.65-.72-9.31-1.08-13.96h0Z"/><ellipse class="cls-8" cx="38.57" cy="93.57" rx="2.53" ry="2.89"/><path d="M38.57,90.83c1.31,0,2.38,1.23,2.38,2.74s-1.07,2.74-2.38,2.74-2.38-1.23-2.38-2.74,1.07-2.74,2.38-2.74M38.57,90.53c-1.48,0-2.68,1.36-2.68,3.04s1.2,3.04,2.68,3.04,2.68-1.36,2.68-3.04-1.2-3.04-2.68-3.04h0Z"/><ellipse class="cls-11" cx="38.57" cy="93.57" rx="1.96" ry="2.24"/><path d="M38.57,91.48c1,0,1.81.94,1.81,2.09s-.81,2.09-1.81,2.09-1.81-.94-1.81-2.09.81-2.09,1.81-2.09M38.57,91.18c-1.16,0-2.11,1.07-2.11,2.39s.94,2.39,2.11,2.39,2.11-1.07,2.11-2.39-.94-2.39-2.11-2.39h0Z"/><polygon class="cls-8" points="29.88 61.4 31.25 43.46 44.93 43.46 46.31 61.4 29.88 61.4"/><path d="M44.79,43.61l.93,12.03.43,5.6h-16.11l.7-9.16.65-8.48h13.4M45.06,43.31h-13.95c-.46,6.08-.93,12.16-1.39,18.23h16.76c-.47-6.08-.94-12.16-1.41-18.23h0Z"/><rect class="cls-8" x="28.98" y="60.88" width="18.24" height=".95"/><path d="M47.06,61.03v.65h-17.94v-.65h17.94M47.36,60.73h-18.54v1.25h18.54v-1.25h0Z"/><rect class="cls-11" x="32.54" y="61.98" width=".14" height="1.98"/><polygon points="32.83 61.83 32.39 61.83 32.39 64.11 32.83 64.11 32.83 61.83 32.83 61.83"/><rect class="cls-11" x="38.39" y="61.98" width=".14" height="1.98"/><polygon points="38.69 61.83 38.24 61.83 38.24 64.11 38.69 64.11 38.69 61.83 38.69 61.83"/><rect class="cls-11" x="43.9" y="61.98" width=".14" height="1.98"/><polygon points="44.19 61.83 43.75 61.83 43.75 64.11 44.19 64.11 44.19 61.83 44.19 61.83"/><rect class="cls-11" x="28.93" y="61.45" width="18.34" height=".42"/><path d="M47.16,61.55v.22h-18.14v-.22h18.14M47.36,61.35h-18.54v.62h18.54v-.62h0Z"/><path class="cls-2" d="M45.89,55.14c-.27.17-.81.44-1.53.45-.88.02-1.53-.37-1.79-.55.01-2.35.02-4.7.03-7.05.6-.69,1.45-1,2.1-.77.14.05.39.16.63.45.19,2.49.37,4.98.56,7.47Z"/><rect class="cls-10" x="28.93" y="56.37" width="18.34" height=".42"/><path d="M47.16,56.47v.22h-18.14v-.22h18.14M47.36,56.27h-18.54v.62h18.54v-.62h0Z"/><rect class="cls-10" x="28.93" y="57.6" width="18.34" height=".42"/><path d="M47.16,57.7v.22h-18.14v-.22h18.14M47.36,57.5h-18.54v.62h18.54v-.62h0Z"/><rect class="cls-10" x="28.93" y="58.84" width="18.34" height=".42"/><path d="M47.16,58.94v.22h-18.14v-.22h18.14M47.36,58.74h-18.54v.62h18.54v-.62h0Z"/><rect class="cls-10" x="28.93" y="60.07" width="18.34" height=".42"/><path d="M47.16,60.17v.22h-18.14v-.22h18.14M47.36,59.97h-18.54v.62h18.54v-.62h0Z"/><rect class="cls-10" x="28.93" y="56.37" width=".39" height="4.09"/><path d="M29.22,56.47v3.89h-.19v-3.89h.19M29.42,56.27h-.59v4.29h.59v-4.29h0Z"/><rect class="cls-10" x="31.22" y="56.37" width=".39" height="4.09"/><path d="M31.51,56.47v3.89h-.19v-3.89h.19M31.71,56.27h-.59v4.29h.59v-4.29h0Z"/><rect class="cls-10" x="33.81" y="56.37" width=".39" height="4.09"/><path d="M34.1,56.47v3.89h-.19v-3.89h.19M34.3,56.27h-.59v4.29h.59v-4.29h0Z"/><rect class="cls-10" x="36.56" y="56.4" width=".39" height="4.09"/><path d="M36.85,56.5v3.89h-.19v-3.89h.19M37.05,56.3h-.59v4.29h.59v-4.29h0Z"/><rect class="cls-10" x="39.1" y="56.4" width=".39" height="4.09"/><path d="M39.39,56.5v3.89h-.19v-3.89h.19M39.59,56.3h-.59v4.29h.59v-4.29h0Z"/><rect class="cls-10" x="41.85" y="56.4" width=".39" height="4.09"/><path d="M42.14,56.5v3.89h-.19v-3.89h.19M42.34,56.3h-.59v4.29h.59v-4.29h0Z"/><rect class="cls-10" x="46.87" y="56.37" width=".39" height="4.09"/><path d="M47.16,56.47v3.89h-.19v-3.89h.19M47.36,56.27h-.59v4.29h.59v-4.29h0Z"/><rect class="cls-10" x="44.51" y="56.37" width=".39" height="4.09"/><path d="M44.8,56.47v3.89h-.19v-3.89h.19M45,56.27h-.59v4.29h.59v-4.29h0Z"/><rect class="cls-5" x="37.53" y="34.88" width="1.14" height="2.51"/><ellipse class="cls-5" cx="38.1" cy="34.88" rx="1.08" ry="1.23"/><path class="cls-5" d="M38.27,33.68h-.29c.05-.88.1-1.76.14-2.65.05.88.1,1.76.14,2.65Z"/><path class="cls-7" d="M150.29,62.97c-34.75-2.56-69.51-5.12-104.26-7.68-.21-2.56-.43-5.13-.64-7.69,34.97-3.2,69.94-6.39,104.9-9.59v24.95Z"/><path class="cls-6" d="M26.17,9.51c0-1.87-2.11-3.39-4.71-3.39-1.76,0-3.3.7-4.11,1.73-.18-.77-1.04-1.36-2.09-1.36s-1.89.57-2.09,1.33c-2.22.08-3.98,1.24-3.98,2.67s1.88,2.68,4.21,2.68c.12,0,.24,0,.36-.01,0,0,0,0,0,.01,0,1.74,1.72,3.15,3.85,3.15,1.7,0,3.14-.9,3.65-2.15.5.3,1.14.48,1.85.48,1.55,0,2.81-.86,2.81-1.91,0-.47-.26-.89-.67-1.23.58-.56.92-1.26.92-2.01Z"/><path class="cls-6" d="M83.3,11.47c0-1.87,2.11-3.39,4.71-3.39,1.76,0,3.3.7,4.11,1.73.18-.77,1.04-1.36,2.09-1.36s1.89.57,2.09,1.33c2.22.08,3.98,1.24,3.98,2.67s-1.88,2.68-4.21,2.68c-.12,0-.24,0-.36-.01,0,0,0,0,0,.01,0,1.74-1.72,3.15-3.85,3.15-1.7,0-3.14-.9-3.65-2.15-.5.3-1.14.48-1.85.48-1.55,0-2.81-.86-2.81-1.91,0-.47.26-.89.67-1.23-.58-.56-.92-1.26-.92-2.01Z"/><path class="cls-6" d="M136.7,23.13c-.5-1.65-3-2.91-6.02-2.91-3.38,0-6.11,1.57-6.11,3.52,0,.02,0,.04,0,.07-.37-.04-.76-.07-1.15-.07-3.5,0-6.34,1.71-6.34,3.81s2.84,3.81,6.34,3.81c.6,0,1.19-.05,1.74-.15.86,1.08,2.59,1.83,4.61,1.83,2.23,0,4.12-.91,4.85-2.18.58.32,1.24.51,1.95.51,2.28,0,4.13-1.85,4.13-4.13s-1.78-4.04-4-4.11Z"/><path class="cls-6" d="M57.64,31.38c.5-1.65,3-2.91,6.02-2.91,3.38,0,6.11,1.57,6.11,3.52,0,.02,0,.04,0,.07.37-.04.76-.07,1.15-.07,3.5,0,6.34,1.71,6.34,3.81s-2.84,3.81-6.34,3.81c-.6,0-1.19-.05-1.74-.15-.86,1.08-2.59,1.83-4.61,1.83-2.23,0-4.12-.91-4.85-2.18-.58.32-1.24.51-1.95.51-2.28,0-4.13-1.85-4.13-4.13s1.78-4.04,4-4.11Z"/></svg>