<?xml version="1.0" encoding="UTF-8"?><svg id="Layer_1" xmlns="http://www.w3.org/2000/svg" width="115.29" height="87.7" viewBox="0 0 115.29 87.7"><defs><style>.cls-1{letter-spacing:-.06em;}.cls-1,.cls-2,.cls-3,.cls-4{fill:#004225;}.cls-5,.cls-3{font-size:14.91px;}.cls-5,.cls-3,.cls-4{font-family:MyriadPro-Regular, 'Myriad Pro';}.cls-6{fill:#6a4a3a;}.cls-4{font-size:29.83px;}</style></defs><text class="cls-4" transform="translate(16.12 60.09) scale(1.07 1)"><tspan x="0" y="0">A</tspan></text><text class="cls-5" transform="translate(36.47 60.1) scale(1.07 1)"><tspan class="cls-1" x="0" y="0">L</tspan><tspan class="cls-2" x="6.16" y="0">V</tspan><tspan x="14.48" y="0"> </tspan></text><text class="cls-4" transform="translate(58.16 59.62) scale(1.07 1)"><tspan x="0" y="0">&amp;</tspan></text><text class="cls-3" transform="translate(85.35 60.64) scale(1.07 1)"><tspan x="0" y="0">Ö</tspan></text><path class="cls-6" d="M26.14,37.84c-.27-.31-.62-.77-.9-1.4-.3-.66-.41-1.26-.46-1.68-.07-.5-.1-1.22.11-2.03.29-1.14.88-1.75.72-1.87-.16-.12-1.05.48-1.66,1.31-.14.19-.25.38-.35.57-.51-.77-1.25-1.72-2.28-2.64-1.46-1.3-2.14-1.34-5.28-3.23-1.41-.85-2.76-1.42-4-2.63-.69-.68-2.44-2.44-2.87-5.25-.28-1.82.11-3.32.39-4.14.26-.33.54-.71.8-1.15.27-.44.53-.95.77-1.52,0,0,.66-1.63.8-3.32.09-1.12-.11-1.15-.03-2.44.07-1.33.63-2.89.43-2.98-.18-.08-.9,1-1.3,2.07-.17.46-.26.68-.26.99,0,.37.1.53.1,1.52h0c0,1.11-.62,2.41-.62,2.41-.89,1.88-.64,2.73-1.13,2.85-.68.17-1.7-1.36-2.31-2.6C4.34,5.61,6.38.12,5.87,0c-.36-.08-1.45,2.62-1.87,5.35-.46,2.94.06,4.68.2,5.14.29.91.77,1.78.77,1.78.4.73.82,1.3,1.18,1.73-.22.8-.45,1.94-.44,3.32.02,1.82.46,3.18.64,3.71.68,1.92,1.73,3.25,2.46,4.02-2.9-.54-4.38-1.99-4.92-2.6-1.41-1.58-1.91-3.55-2.31-5.09-.2-.79-.22-1.13-.77-3.51-.37-1.6-.55-2.4-.56-2.39-.21.03-1.36,9.9,3.72,14.4,2.89,2.56,6.59,2.93,8.66,2.94,0,0,.02,0,.03.01-1.9,1.02-4.05,1.65-6.18,1.13-2.02-.5-3.37-1.88-3.52-1.7-.18.23,1.66,2.85,4.57,3.76,3.97,1.25,7.59-1.44,8.07-1.81h0c.55.15,1.33.38,2.22.76,1.13.48,1.78.76,2.51,1.38,1.2,1.01,1.81,2.25,2.1,2.85.14.28.24.53.31.7-.35-.28-.67-.48-.94-.62-.46-.24-1.06-.47-1.1-.38-.07.12.7.65,1.59,1.42.96.84,1.66,1.61,2.09,2.13.58-.2,1.16-.4,1.74-.6Z"/><path class="cls-6" d="M29.2,37.84c.27-.31.62-.77.9-1.4.3-.66.41-1.26.46-1.68.07-.5.1-1.22-.11-2.03-.29-1.14-.88-1.75-.72-1.87.16-.12,1.05.48,1.66,1.31.14.19.25.38.35.57.51-.77,1.25-1.72,2.28-2.64,1.46-1.3,2.14-1.34,5.28-3.23,1.41-.85,2.76-1.42,4-2.63.69-.68,2.44-2.44,2.87-5.25.28-1.82-.11-3.32-.39-4.14-.26-.33-.54-.71-.8-1.15-.27-.44-.53-.95-.77-1.52,0,0-.66-1.63-.8-3.32-.09-1.12.11-1.15.03-2.44-.07-1.33-.63-2.89-.43-2.98.18-.08.9,1,1.3,2.07.17.46.26.68.26.99,0,.37-.1.53-.1,1.52h0c0,1.11.62,2.41.62,2.41.89,1.88.64,2.73,1.13,2.85.68.17,1.7-1.36,2.31-2.6C51,5.61,48.96.12,49.47,0c.36-.08,1.45,2.62,1.87,5.35.46,2.94-.06,4.68-.2,5.14-.29.91-.77,1.78-.77,1.78-.4.73-.82,1.3-1.18,1.73.22.8.45,1.94.44,3.32-.02,1.82-.46,3.18-.64,3.71-.68,1.92-1.73,3.25-2.46,4.02,2.9-.54,4.38-1.99,4.92-2.6,1.41-1.58,1.91-3.55,2.31-5.09.2-.79.22-1.13.77-3.51.37-1.6.55-2.4.56-2.39.21.03,1.36,9.9-3.72,14.4-2.89,2.56-6.59,2.93-8.66,2.94,0,0-.02,0-.03.01,1.9,1.02,4.05,1.65,6.18,1.13,2.02-.5,3.37-1.88,3.52-1.7.18.23-1.66,2.85-4.57,3.76-3.97,1.25-7.59-1.44-8.07-1.81h0c-.55.15-1.33.38-2.22.76-1.13.48-1.78.76-2.51,1.38-1.2,1.01-1.81,2.25-2.1,2.85-.14.28-.24.53-.31.7.35-.28.67-.48.94-.62.46-.24,1.06-.47,1.1-.38.07.12-.7.65-1.59,1.42-.96.84-1.66,1.61-2.09,2.13-.58-.2-1.16-.4-1.74-.6Z"/></svg>