<?xml version="1.0" encoding="UTF-8"?><svg id="Layer_1" xmlns="http://www.w3.org/2000/svg" width="18.88" height="35.79" viewBox="0 0 18.88 35.79"><defs><style>.cls-1{fill:#fff;}.cls-2{fill:#678c53;}</style></defs><path class="cls-2" d="M9.44,35.79l-4.28-10.69c-1.35-3.71-2.69-7.43-4.04-11.14,2.77-.02,5.55-.04,8.32-.05,2.79,0,5.59,0,8.38,0-1.37,3.73-2.73,7.46-4.1,11.19l-4.28,10.69Z"/><path class="cls-2" d="M18.88,9.53c0,5.26-4.23,9.53-9.44,9.53-3.32,0-5.69-1.9-6.19-2.34C2.96,16.46-.09,13.7,0,9.53.1,5,3.86,0,9.44,0c5.21,0,9.44,4.27,9.44,9.53Z"/><path class="cls-2" d="M9.44,14.14c-2.51,0-4.56-2.07-4.56-4.62s2.05-4.62,4.56-4.62,4.56,2.07,4.56,4.62-2.04,4.62-4.56,4.62Z"/><path class="cls-1" d="M9.44,6.41c1.69,0,3.06,1.4,3.06,3.12s-1.37,3.12-3.06,3.12-3.06-1.4-3.06-3.12,1.37-3.12,3.06-3.12M9.44,3.41c-3.35,0-6.06,2.74-6.06,6.12s2.71,6.12,6.06,6.12,6.06-2.74,6.06-6.12-2.71-6.12-6.06-6.12h0Z"/></svg>