<?xml version="1.0" encoding="UTF-8"?><svg id="Layer_1" xmlns="http://www.w3.org/2000/svg" width="23.05" height="37.68" viewBox="0 0 23.05 37.68"><defs><style>.cls-1{fill:#fcfcfc;}.cls-2{fill:#d66363;}.cls-3{fill:#fdc3c3;}</style></defs><path class="cls-3" d="M6.52,26.33L1.6,14.61c-.94-1.5-1.38-3.03-1.35-4.57C.37,5.31,4.93.25,11.53.25c6.22,0,11.28,4.39,11.28,9.78,0,1.57-.43,3.09-1.27,4.49l-.23.38h.07l-4.85,11.44-5,10.75-5-10.76Z"/><path class="cls-2" d="M11.53.5c6.08,0,11.03,4.28,11.03,9.53,0,1.53-.41,3-1.23,4.36l-.45.76h.13l-2.21,5.2-2.49,5.88-4.78,10.28-4.77-10.26-3.51-8.36-1.12-2.68h.15l-.48-.77c-.89-1.43-1.33-2.91-1.29-4.4C.61,5.43,5.07.5,11.53.5M11.53,0C4.71,0,.12,5.26,0,10.03c-.05,1.85.59,3.44,1.37,4.68h0c1.64,3.91,3.28,7.82,4.93,11.73l5.23,11.25,5.23-11.25c1.67-3.93,3.33-7.86,5-11.78h0c.83-1.38,1.3-2.95,1.3-4.62C23.05,4.49,17.89,0,11.53,0h0Z"/><path class="cls-1" d="M11.53,16.22c-3.94,0-7.15-2.78-7.15-6.19s3.21-6.19,7.15-6.19,7.15,2.78,7.15,6.19-3.21,6.19-7.15,6.19Z"/><path class="cls-2" d="M11.53,4.09c3.8,0,6.9,2.66,6.9,5.94s-3.09,5.94-6.9,5.94-6.9-2.66-6.9-5.94,3.09-5.94,6.9-5.94M11.53,3.59c-4.09,0-7.4,2.88-7.4,6.44s3.31,6.44,7.4,6.44,7.4-2.88,7.4-6.44-3.31-6.44-7.4-6.44h0Z"/></svg>